<?xml version="1.0" encoding="UTF-8" standalone="no"?>
<!DOCTYPE svg PUBLIC "-//W3C//DTD SVG 1.1//EN"
 "http://www.w3.org/Graphics/SVG/1.1/DTD/svg11.dtd">
<!-- Generated by graphviz version 2.38.0 (20140413.2041)
 -->
<!-- Title: snakemake_dag Pages: 1 -->
<svg width="132pt" height="260pt"
 viewBox="0.00 0.00 132.00 260.00" xmlns="http://www.w3.org/2000/svg" xmlns:xlink="http://www.w3.org/1999/xlink">
<g id="graph0" class="graph" transform="scale(1 1) rotate(0) translate(4 256)">
<title>snakemake_dag</title>
<polygon fill="white" stroke="none" points="-4,4 -4,-256 128,-256 128,4 -4,4"/>
<!-- 0 -->
<g id="node1" class="node"><title>0</title>
<path fill="none" stroke="#56c1d8" stroke-width="2" stroke-dasharray="5,2" d="M68,-36C68,-36 27,-36 27,-36 21,-36 15,-30 15,-24 15,-24 15,-12 15,-12 15,-6 21,-0 27,-0 27,-0 68,-0 68,-0 74,-0 80,-6 80,-12 80,-12 80,-24 80,-24 80,-30 74,-36 68,-36"/>
<text text-anchor="middle" x="47.5" y="-15.5" font-family="sans" font-size="10.00">lmmlasso</text>
</g>
<!-- 1 -->
<g id="node2" class="node"><title>1</title>
<path fill="none" stroke="#d8bc56" stroke-width="2" stroke-dasharray="5,2" d="M75.5,-108C75.5,-108 19.5,-108 19.5,-108 13.5,-108 7.5,-102 7.5,-96 7.5,-96 7.5,-84 7.5,-84 7.5,-78 13.5,-72 19.5,-72 19.5,-72 75.5,-72 75.5,-72 81.5,-72 87.5,-78 87.5,-84 87.5,-84 87.5,-96 87.5,-96 87.5,-102 81.5,-108 75.5,-108"/>
<text text-anchor="middle" x="47.5" y="-87.5" font-family="sans" font-size="10.00">plink_extract</text>
</g>
<!-- 1&#45;&gt;0 -->
<g id="edge1" class="edge"><title>1&#45;&gt;0</title>
<path fill="none" stroke="grey" stroke-width="2" d="M47.5,-71.6966C47.5,-63.9827 47.5,-54.7125 47.5,-46.1124"/>
<polygon fill="grey" stroke="grey" stroke-width="2" points="51.0001,-46.1043 47.5,-36.1043 44.0001,-46.1044 51.0001,-46.1043"/>
</g>
<!-- 2 -->
<g id="node3" class="node"><title>2</title>
<path fill="none" stroke="#d85656" stroke-width="2" stroke-dasharray="5,2" d="M83,-252C83,-252 12,-252 12,-252 6,-252 0,-246 0,-240 0,-240 0,-228 0,-228 0,-222 6,-216 12,-216 12,-216 83,-216 83,-216 89,-216 95,-222 95,-228 95,-228 95,-240 95,-240 95,-246 89,-252 83,-252"/>
<text text-anchor="middle" x="47.5" y="-231.5" font-family="sans" font-size="10.00">plink_maf_geno</text>
</g>
<!-- 2&#45;&gt;1 -->
<g id="edge2" class="edge"><title>2&#45;&gt;1</title>
<path fill="none" stroke="grey" stroke-width="2" d="M40.8478,-215.628C37.2971,-205.421 33.2971,-192.171 31.5,-180 29.1629,-164.172 29.1629,-159.828 31.5,-144 32.7776,-135.347 35.1686,-126.149 37.7201,-117.887"/>
<polygon fill="grey" stroke="grey" stroke-width="2" points="41.0499,-118.965 40.8478,-108.372 34.3999,-116.779 41.0499,-118.965"/>
</g>
<!-- 3 -->
<g id="node4" class="node"><title>3</title>
<path fill="none" stroke="#88d856" stroke-width="2" stroke-dasharray="5,2" d="M112,-180C112,-180 53,-180 53,-180 47,-180 41,-174 41,-168 41,-168 41,-156 41,-156 41,-150 47,-144 53,-144 53,-144 112,-144 112,-144 118,-144 124,-150 124,-156 124,-156 124,-168 124,-168 124,-174 118,-180 112,-180"/>
<text text-anchor="middle" x="82.5" y="-159.5" font-family="sans" font-size="10.00">plink_prunset</text>
</g>
<!-- 2&#45;&gt;3 -->
<g id="edge4" class="edge"><title>2&#45;&gt;3</title>
<path fill="none" stroke="grey" stroke-width="2" d="M56.1517,-215.697C60.1358,-207.728 64.9502,-198.1 69.3679,-189.264"/>
<polygon fill="grey" stroke="grey" stroke-width="2" points="72.6061,-190.614 73.9478,-180.104 66.3451,-187.483 72.6061,-190.614"/>
</g>
<!-- 3&#45;&gt;1 -->
<g id="edge3" class="edge"><title>3&#45;&gt;1</title>
<path fill="none" stroke="grey" stroke-width="2" d="M73.8483,-143.697C69.8642,-135.728 65.0498,-126.1 60.6321,-117.264"/>
<polygon fill="grey" stroke="grey" stroke-width="2" points="63.6549,-115.483 56.0522,-108.104 57.3939,-118.614 63.6549,-115.483"/>
</g>
</g>
</svg>
